<?xml version="1.0" encoding="utf-8"?>
<!-- Generator: Adobe Illustrator 28.2.0, SVG Export Plug-In . SVG Version: 6.00 Build 0)  -->
<svg version="1.1" id="圖層_1" xmlns="http://www.w3.org/2000/svg" xmlns:xlink="http://www.w3.org/1999/xlink" x="0px" y="0px"
	 viewBox="0 0 22 23" style="enable-background:new 0 0 22 23;" xml:space="preserve">
<path d="M18.7,7.7l-4.4-4.4c-0.5-0.5-1.2-0.8-1.9-0.8H5.7C5,2.5,4.3,2.8,3.8,3.3S3,4.5,3,5.2v12.8c0,0.7,0.3,1.4,0.8,1.9
	s1.2,0.8,1.9,0.8h11c0.7,0,1.4-0.3,1.9-0.8s0.8-1.2,0.8-1.9V9.7C19.5,8.9,19.2,8.2,18.7,7.7z M17.3,8.9H14c-0.2,0-0.5-0.1-0.6-0.3
	c-0.2-0.2-0.3-0.4-0.3-0.6V4.7L17.3,8.9z M16.7,19h-11c-0.2,0-0.5-0.1-0.6-0.3c-0.2-0.2-0.3-0.4-0.3-0.6V5.2c0-0.2,0.1-0.5,0.3-0.6
	c0.2-0.2,0.4-0.3,0.6-0.3h5.5V8c0,0.7,0.3,1.4,0.8,1.9c0.5,0.5,1.2,0.8,1.9,0.8h3.7v7.3c0,0.2-0.1,0.5-0.3,0.6
	C17.2,18.9,17,19,16.7,19z"/>
<path d="M14.8,13.2c-0.1-0.1-0.1-0.2-0.2-0.3c-0.1-0.1-0.2-0.2-0.4-0.2c-0.1-0.1-0.3-0.1-0.4-0.1c-0.1,0-0.3,0-0.4,0.1
	c-0.1,0.1-0.3,0.1-0.4,0.2l-2,1.9l-0.6-0.6c-0.1-0.1-0.2-0.2-0.4-0.3c-0.1-0.1-0.3-0.1-0.4-0.1c-0.2,0-0.3,0-0.4,0.1
	c-0.1,0.1-0.3,0.1-0.4,0.2c-0.1,0.1-0.2,0.2-0.2,0.4c-0.1,0.1-0.1,0.3-0.1,0.4c0,0.1,0,0.3,0.1,0.4c0.1,0.1,0.2,0.2,0.3,0.3l1.4,1.4
	l0.1,0.1c0.1,0,0.1,0.1,0.2,0.1c0,0,0.1,0,0.1,0c0.1,0,0.2,0,0.3,0h0.1c0.2,0,0.4-0.1,0.6-0.3l2.7-2.5c0.1-0.1,0.2-0.2,0.2-0.3
	c0.1-0.1,0.1-0.3,0.1-0.4S14.9,13.3,14.8,13.2z"/>
</svg>
