<?xml version="1.0" encoding="utf-8"?>
<!-- Generator: Adobe Illustrator 28.2.0, SVG Export Plug-In . SVG Version: 6.00 Build 0)  -->
<svg version="1.1" id="圖層_1" xmlns="http://www.w3.org/2000/svg" xmlns:xlink="http://www.w3.org/1999/xlink" x="0px" y="0px"
	 viewBox="0 0 32 32" style="enable-background:new 0 0 32 32;" xml:space="preserve">
<style type="text/css">
	.st0{fill:#469658;}
</style>
<g>
	<path class="st0" d="M20.5,17.8c-0.4-0.2-0.8-0.3-1.2-0.5c2.3-1.5,3.8-4.1,3.8-7.1c0-4.7-3.8-8.5-8.5-8.5c-4.7,0-8.5,3.8-8.5,8.5
		c0,2.9,1.5,5.5,3.8,7.1C4.7,19.2,1,24.2,1,30.1h2.3c0-6.2,5.1-11.3,11.3-11.3c1.7,0,3.4,0.4,4.9,1.1L20.5,17.8z M8.4,10.3
		c0-3.4,2.8-6.2,6.2-6.2c3.4,0,6.2,2.8,6.2,6.2s-2.8,6.2-6.2,6.2C11.1,16.5,8.4,13.7,8.4,10.3z"/>
	<path class="st0" d="M25.1,18.3c-3.3,0-5.9,2.7-5.9,5.9c0,3.3,2.7,5.9,5.9,5.9c3.3,0,5.9-2.7,5.9-5.9C31,21,28.3,18.3,25.1,18.3z
		 M25.1,28.5c-2.3,0-4.2-1.9-4.2-4.2s1.9-4.2,4.2-4.2s4.2,1.9,4.2,4.2S27.4,28.5,25.1,28.5z"/>
	<polygon class="st0" points="25.9,21.4 24.2,21.4 24.2,23.4 22.2,23.4 22.2,25.1 24.2,25.1 24.2,27.1 25.9,27.1 25.9,25.1 
		27.9,25.1 27.9,23.4 25.9,23.4 	"/>
</g>
</svg>
