<?xml version="1.0" encoding="utf-8"?>
<!-- Generator: Adobe Illustrator 28.2.0, SVG Export Plug-In . SVG Version: 6.00 Build 0)  -->
<svg version="1.1" id="圖層_1" xmlns="http://www.w3.org/2000/svg" xmlns:xlink="http://www.w3.org/1999/xlink" x="0px" y="0px"
	 viewBox="0 0 22 23" style="enable-background:new 0 0 22 23;" xml:space="preserve">
<g>
	<path d="M17.4,4.2H4.6c-0.7,0-1.4,0.3-2,0.8S1.8,6.2,1.8,6.9v9.2c0,0.7,0.3,1.4,0.8,1.9s1.2,0.8,1.9,0.8h12.8
		c0.7,0,1.4-0.3,1.9-0.8s0.8-1.2,0.8-1.9V6.9c0-0.7-0.3-1.4-0.8-1.9C18.8,4.5,18.1,4.2,17.4,4.2z M18.3,16.1c0,0.2-0.1,0.5-0.3,0.6
		c-0.2,0.2-0.4,0.3-0.6,0.3H4.6c-0.2,0-0.5-0.1-0.6-0.3c-0.2-0.2-0.3-0.4-0.3-0.6V6.9c0-0.2,0.1-0.5,0.3-0.6C4.1,6.1,4.3,6,4.6,6
		h12.8c0.2,0,0.5,0.1,0.6,0.3c0.2,0.2,0.3,0.4,0.3,0.6V16.1z M16.3,9.1c0.1,0.2,0.2,0.4,0.2,0.7c0,0.2-0.1,0.5-0.3,0.6l-3.4,2.7
		c-0.5,0.4-1.1,0.6-1.7,0.6s-1.2-0.2-1.7-0.6L6,10.4C5.7,10.2,5.6,10,5.6,9.8s0.1-0.5,0.2-0.6C5.9,9,6.1,8.8,6.3,8.8
		c0.2,0,0.5,0,0.6,0.1l3.4,2.7c0.2,0.1,0.4,0.2,0.6,0.2s0.4-0.1,0.6-0.2L15,9c0.2-0.1,0.4-0.2,0.7-0.2C15.9,8.8,16.1,8.9,16.3,9.1z"
		/>
</g>
</svg>
