<?xml version="1.0" encoding="utf-8"?>
<!-- Generator: Adobe Illustrator 28.2.0, SVG Export Plug-In . SVG Version: 6.00 Build 0)  -->
<svg version="1.1" id="圖層_1" xmlns="http://www.w3.org/2000/svg" xmlns:xlink="http://www.w3.org/1999/xlink" x="0px" y="0px"
	 viewBox="0 0 22 23" style="enable-background:new 0 0 22 23;" xml:space="preserve">
<path d="M2.8,12.4h0.9v6.4c0,1,0.8,1.8,1.8,1.8h11c1,0,1.8-0.8,1.8-1.8v-6.4h0.9c0.2,0,0.4-0.1,0.5-0.2c0.2-0.1,0.3-0.2,0.3-0.4
	c0.1-0.2,0.1-0.4,0.1-0.5c0-0.2-0.1-0.3-0.3-0.5l-8.2-8.2c-0.1-0.1-0.2-0.2-0.3-0.2c-0.1,0-0.2-0.1-0.4-0.1s-0.2,0-0.4,0.1
	c-0.1,0-0.2,0.1-0.3,0.2l-8.2,8.2C2,11,1.9,11.1,1.9,11.3c0,0.2,0,0.4,0.1,0.5C2,12,2.1,12.2,2.2,12.3C2.4,12.4,2.6,12.4,2.8,12.4z
	 M9.2,18.8v-4.6h3.7v4.6H9.2z M11,4.5l5.5,5.5v4.2l0,4.6h-1.8v-4.6c0-1-0.8-1.8-1.8-1.8H9.2c-1,0-1.8,0.8-1.8,1.8v4.6H5.5V10L11,4.5
	z"/>
</svg>
