<?xml version="1.0" encoding="utf-8"?>
<!-- Generator: Adobe Illustrator 28.2.0, SVG Export Plug-In . SVG Version: 6.00 Build 0)  -->
<svg version="1.1" id="圖層_1" xmlns="http://www.w3.org/2000/svg" xmlns:xlink="http://www.w3.org/1999/xlink" x="0px" y="0px"
	 viewBox="0 0 22 23" style="enable-background:new 0 0 22 23;" xml:space="preserve">
<path d="M13.9,11.5c-0.5-0.5-1.1-0.8-1.8-0.8H12h-0.9h-0.8c-0.2,0-0.4-0.1-0.6-0.2c-0.1-0.1-0.1-0.2-0.2-0.2c0-0.1-0.1-0.2-0.1-0.3
	V9.9c0-0.3,0.2-0.5,0.4-0.7c0.4-0.3,0.8-0.4,1.3-0.4c0.1,0,0.3,0,0.4,0c0.5,0.1,1,0.3,1.4,0.6c0.1,0.1,0.2,0.1,0.3,0.2
	c0.1,0,0.2,0.1,0.4,0c0.1,0,0.2,0,0.3-0.1c0.1-0.1,0.2-0.1,0.3-0.2c0.1-0.1,0.1-0.2,0.2-0.3c0-0.1,0.1-0.2,0-0.4
	c0-0.1,0-0.2-0.1-0.3c-0.1-0.1-0.1-0.2-0.2-0.3c-0.6-0.5-1.3-0.8-2.1-1V6.2c0-0.2-0.1-0.5-0.3-0.6c-0.2-0.2-0.4-0.3-0.6-0.3
	s-0.5,0.1-0.6,0.3c-0.2,0.2-0.3,0.4-0.3,0.6v0.9C9.7,7.2,9.2,7.4,8.7,7.8C8.1,8.3,7.8,9,7.7,9.7c0,0.1,0,0.2,0,0.3
	c0,0.7,0.3,1.3,0.8,1.8c0.5,0.5,1.1,0.8,1.8,0.8h0.1h0.9H12c0.2,0,0.4,0.1,0.6,0.2c0.1,0.1,0.2,0.3,0.2,0.5v0.1
	c0,0.3-0.2,0.5-0.4,0.7c-0.4,0.3-0.8,0.4-1.3,0.4c-0.1,0-0.3,0-0.4,0c-0.5-0.1-1-0.3-1.4-0.6c-0.1-0.1-0.2-0.2-0.3-0.2
	c-0.1,0-0.2-0.1-0.4-0.1c-0.1,0-0.2,0-0.4,0.1c-0.1,0.1-0.2,0.1-0.3,0.2C8,14,7.9,14.1,7.9,14.3c0,0.1-0.1,0.2,0,0.4
	c0,0.1,0,0.2,0.1,0.4c0.1,0.1,0.1,0.2,0.2,0.3c0.6,0.5,1.3,0.8,2.1,1v0.9c0,0.2,0.1,0.5,0.3,0.6c0.2,0.2,0.4,0.3,0.6,0.3
	s0.5-0.1,0.6-0.3c0.2-0.2,0.3-0.4,0.3-0.6v-0.9c0.6-0.1,1.1-0.4,1.5-0.7c0.6-0.5,0.9-1.2,1-1.9c0-0.1,0-0.2,0-0.3
	C14.6,12.7,14.4,12,13.9,11.5z M20.3,11.7c0,1.8-0.5,3.6-1.5,5.1c-1,1.5-2.4,2.7-4.1,3.4c-1.7,0.7-3.5,0.9-5.3,0.5
	c-1.8-0.4-3.4-1.2-4.7-2.5c-1.3-1.3-2.2-2.9-2.5-4.7C1.8,11.7,2,9.8,2.7,8.2C3.4,6.5,4.6,5.1,6.1,4c1.5-1,3.3-1.5,5.1-1.5
	c1.2,0,2.4,0.2,3.5,0.7c1.1,0.5,2.1,1.1,3,2c0.9,0.9,1.5,1.9,2,3C20.1,9.3,20.3,10.5,20.3,11.7z M18.5,11.7c0-1.7-0.6-3.3-1.7-4.6
	c-1.1-1.3-2.6-2.2-4.2-2.5c-1.7-0.3-3.4-0.1-4.9,0.7C6.2,6,5,7.3,4.4,8.9c-0.6,1.6-0.7,3.3-0.2,4.9c0.5,1.6,1.5,3,2.9,4
	c1.4,0.9,3.1,1.4,4.8,1.2c1.7-0.2,3.3-0.9,4.5-2.1c0.7-0.7,1.2-1.5,1.6-2.4C18.3,13.6,18.5,12.6,18.5,11.7z"/>
</svg>
