<?xml version="1.0" encoding="utf-8"?>
<!-- Generator: Adobe Illustrator 28.2.0, SVG Export Plug-In . SVG Version: 6.00 Build 0)  -->
<svg version="1.1" id="圖層_1" xmlns="http://www.w3.org/2000/svg" xmlns:xlink="http://www.w3.org/1999/xlink" x="0px" y="0px"
	 viewBox="0 0 22 23" style="enable-background:new 0 0 22 23;" xml:space="preserve">
<path d="M11.2,9.1c-0.5,0-1.1,0.1-1.5,0.4c-0.4,0.3-0.8,0.7-1,1.1s-0.3,1-0.2,1.5c0.1,0.5,0.4,0.9,0.7,1.3c0.4,0.4,0.9,0.6,1.4,0.7
	c0.5,0.1,1.1,0,1.6-0.1c0.5-0.2,0.9-0.5,1.2-0.9c0.3-0.4,0.5-0.9,0.5-1.4c0-0.7-0.3-1.3-0.8-1.8C12.6,9.4,11.9,9.1,11.2,9.1z
	 M11.2,12.5c-0.2,0-0.4,0-0.5-0.1s-0.3-0.2-0.3-0.4c-0.1-0.2-0.1-0.3-0.1-0.5c0-0.2,0.1-0.3,0.2-0.4c0.1-0.1,0.3-0.2,0.5-0.2
	c0.2,0,0.4,0,0.5,0c0.2,0.1,0.3,0.2,0.4,0.3c0.1,0.1,0.2,0.3,0.2,0.5c0,0.2-0.1,0.4-0.3,0.6C11.6,12.4,11.4,12.5,11.2,12.5z
	 M19.1,12.3c-0.1-0.2-0.2-0.4-0.2-0.6v-0.2c0-0.2,0.1-0.4,0.2-0.6l0.6-0.6c0.4-0.5,0.7-1.1,0.7-1.7c0-0.4-0.1-0.9-0.4-1.3l-0.5-0.8
	c-0.2-0.4-0.6-0.7-1-0.9c-0.4-0.2-0.9-0.3-1.3-0.3c-0.2,0-0.4,0-0.5,0.1l-0.8,0.2h-0.2c-0.2,0-0.3,0-0.4-0.1l-0.2-0.1
	c-0.2-0.1-0.3-0.2-0.4-0.4l-0.3-0.8c-0.2-0.5-0.5-0.9-1-1.2c-0.5-0.3-1-0.5-1.6-0.5h-1c-0.6,0-1.1,0.2-1.6,0.4
	c-0.5,0.3-0.8,0.7-1,1.2L7.8,4.9C7.8,5.1,7.6,5.3,7.4,5.4L7.2,5.5C7.1,5.6,6.9,5.6,6.8,5.6H6.6L5.8,5.4c-0.2,0-0.4-0.1-0.5-0.1
	c-0.5,0-1,0.1-1.4,0.3c-0.4,0.2-0.8,0.5-1,0.9L2.4,7.4C2.1,7.9,2,8.4,2,9c0.1,0.5,0.3,1,0.7,1.4L3.3,11c0.1,0.2,0.2,0.4,0.2,0.6v0.2
	c0,0.2-0.1,0.4-0.2,0.6l-0.6,0.6C2.2,13.4,2,14,2,14.6c0,0.4,0.1,0.9,0.4,1.3l0.5,0.8c0.2,0.4,0.6,0.7,1,0.9
	c0.4,0.2,0.9,0.3,1.3,0.3c0.2,0,0.4,0,0.5-0.1l0.8-0.2h0.2c0.2,0,0.3,0,0.4,0.1L7.4,18c0.2,0.1,0.3,0.3,0.4,0.5l0.3,0.7
	c0.2,0.5,0.5,0.9,1,1.2c0.5,0.3,1,0.5,1.6,0.5h1c0.6,0,1.1-0.2,1.6-0.5c0.5-0.3,0.8-0.7,1-1.2l0.3-0.8c0.1-0.2,0.2-0.4,0.4-0.5
	l0.2-0.1c0.1-0.1,0.3-0.1,0.4-0.1h0.2l0.9,0.2c0.2,0,0.4,0.1,0.5,0.1c0.5,0,0.9-0.1,1.3-0.3s0.8-0.5,1-0.9l0.5-0.8
	c0.2-0.4,0.4-0.8,0.4-1.3c0-0.6-0.2-1.2-0.7-1.7L19.1,12.3z M17.7,13.4l0.6,0.6c0.1,0.2,0.2,0.4,0.2,0.6c0,0.1,0,0.3-0.1,0.4
	l-0.5,0.8c-0.1,0.1-0.2,0.2-0.3,0.3c-0.1,0.1-0.3,0.1-0.4,0.1H17l-0.8-0.2c-0.6-0.1-1.3,0-1.9,0.3L14,16.5c-0.6,0.3-1,0.8-1.2,1.4
	l-0.3,0.8c-0.1,0.2-0.2,0.3-0.3,0.4c-0.2,0.1-0.3,0.2-0.5,0.2h-1c-0.2,0-0.4-0.1-0.5-0.2c-0.2-0.1-0.3-0.2-0.3-0.4l-0.3-0.8
	c-0.2-0.6-0.6-1.1-1.2-1.4l-0.2-0.1C7.7,16.2,7.2,16,6.8,16c-0.2,0-0.4,0-0.5,0.1l-0.8,0.2H5.2c-0.2,0-0.3,0-0.5-0.1
	c-0.1-0.1-0.3-0.2-0.3-0.3L3.9,15c-0.1-0.1-0.1-0.3-0.1-0.4c0-0.2,0.1-0.4,0.2-0.6l0.6-0.6c0.4-0.5,0.7-1.1,0.7-1.7v-0.2
	c0-0.6-0.2-1.2-0.7-1.7L4,9.2C3.8,9.1,3.8,8.9,3.8,8.7c0-0.1,0.1-0.3,0.2-0.4l0.5-0.8c0.1-0.1,0.2-0.2,0.3-0.3C4.9,7.1,5,7,5.2,7
	h0.2l0.8,0.2c0.2,0,0.4,0.1,0.5,0.1c0.5,0,0.9-0.1,1.3-0.3l0.2-0.1c0.6-0.3,1-0.8,1.2-1.3l0.3-0.8c0.1-0.2,0.2-0.3,0.3-0.4
	c0.2-0.1,0.3-0.2,0.5-0.2h1c0.2,0,0.4,0.1,0.5,0.2c0.2,0.1,0.3,0.2,0.3,0.4l0.3,0.8C13,6,13.4,6.5,14,6.8l0.2,0.1
	c0.4,0.2,0.9,0.3,1.3,0.3c0.2,0,0.4,0,0.5-0.1L17,7.1h0.2c0.2,0,0.3,0,0.5,0.1c0.1,0.1,0.3,0.2,0.3,0.3l0.5,0.8
	c0.1,0.1,0.1,0.3,0.1,0.4c0,0.2-0.1,0.4-0.2,0.6l-0.6,0.6c-0.4,0.5-0.7,1.1-0.7,1.7v0.2C17.1,12.4,17.3,13,17.7,13.4"/>
</svg>
