<?xml version="1.0" encoding="utf-8"?>
<!-- Generator: Adobe Illustrator 28.2.0, SVG Export Plug-In . SVG Version: 6.00 Build 0)  -->
<svg version="1.1" id="圖層_1" xmlns="http://www.w3.org/2000/svg" xmlns:xlink="http://www.w3.org/1999/xlink" x="0px" y="0px"
	 viewBox="0 0 22 23" style="enable-background:new 0 0 22 23;" xml:space="preserve">
<path d="M20,19.5c0,0.3-0.1,0.5-0.3,0.7s-0.4,0.3-0.7,0.3H3c-0.3,0-0.5-0.1-0.7-0.3C2.1,20,2,19.8,2,19.5s0.1-0.5,0.3-0.7
	c0.2-0.2,0.4-0.3,0.7-0.3h16c0.3,0,0.5,0.1,0.7,0.3S20,19.2,20,19.5z M5,16.5c0.3,0,0.5-0.1,0.7-0.3C5.9,16,6,15.8,6,15.5v-7
	C6,8.2,5.9,8,5.7,7.8C5.5,7.6,5.3,7.5,5,7.5S4.5,7.6,4.3,7.8C4.1,8,4,8.2,4,8.5v7c0,0.3,0.1,0.5,0.3,0.7C4.5,16.4,4.7,16.5,5,16.5z
	 M9,16.5c0.3,0,0.5-0.1,0.7-0.3C9.9,16,10,15.8,10,15.5v-11C10,4.2,9.9,4,9.7,3.8C9.5,3.6,9.3,3.5,9,3.5S8.5,3.6,8.3,3.8
	C8.1,4,8,4.2,8,4.5v11c0,0.3,0.1,0.5,0.3,0.7C8.5,16.4,8.7,16.5,9,16.5z M17,16.5c0.3,0,0.5-0.1,0.7-0.3s0.3-0.4,0.3-0.7v-8
	c0-0.3-0.1-0.5-0.3-0.7c-0.2-0.2-0.4-0.3-0.7-0.3s-0.5,0.1-0.7,0.3C16.1,7,16,7.2,16,7.5v8c0,0.3,0.1,0.5,0.3,0.7S16.7,16.5,17,16.5
	z M13,16.5c0.3,0,0.5-0.1,0.7-0.3s0.3-0.4,0.3-0.7v-3c0-0.3-0.1-0.5-0.3-0.7s-0.4-0.3-0.7-0.3s-0.5,0.1-0.7,0.3S12,12.2,12,12.5v3
	c0,0.3,0.1,0.5,0.3,0.7S12.7,16.5,13,16.5z"/>
</svg>
