<svg width="14" height="12" viewBox="0 0 14 12" fill="none" xmlns="http://www.w3.org/2000/svg">
<path d="M13.7441 6.60822L8.55368 11.7481C8.47302 11.8279 8.37727 11.8913 8.27188 11.9345C8.1665 11.9778 8.05355 12 7.93948 12C7.82541 12 7.71246 11.9778 7.60708 11.9345C7.50169 11.8913 7.40594 11.8279 7.32528 11.7481C7.24462 11.6682 7.18064 11.5734 7.13699 11.469C7.09334 11.3647 7.07087 11.2528 7.07087 11.1399C7.07087 11.0269 7.09334 10.915 7.13699 10.8107C7.18064 10.7063 7.24462 10.6115 7.32528 10.5316L11.0451 6.85664H1.01891C0.789479 6.85664 0.569445 6.76639 0.407213 6.60574C0.24498 6.44509 0.153839 6.2272 0.153839 6C0.153839 5.7728 0.24498 5.55491 0.407213 5.39426C0.569445 5.23361 0.789479 5.14336 1.01891 5.14336H11.0451L7.32528 1.46836C7.16238 1.30705 7.07087 1.08827 7.07087 0.860147C7.07087 0.632022 7.16238 0.41324 7.32528 0.251931C7.48817 0.0906225 7.70911 3.39933e-09 7.93948 0C8.16985 -3.39933e-09 8.39078 0.0906225 8.55368 0.251931L13.7441 5.39178C13.8252 5.47142 13.8895 5.56617 13.9335 5.67056C13.9774 5.77495 14 5.88691 14 6C14 6.11309 13.9774 6.22506 13.9335 6.32945C13.8895 6.43384 13.8252 6.52858 13.7441 6.60822Z" fill="#469658"/>
</svg>
