<svg width="20" height="21" viewBox="0 0 20 21" fill="none" xmlns="http://www.w3.org/2000/svg">
<path d="M4.79169 11.3333C4.79169 11.1273 4.85278 10.9259 4.96724 10.7546C5.0817 10.5833 5.24439 10.4498 5.43473 10.3709C5.62506 10.2921 5.83451 10.2714 6.03657 10.3116C6.23864 10.3518 6.42424 10.451 6.56992 10.5967C6.7156 10.7424 6.81481 10.928 6.85501 11.1301C6.8952 11.3321 6.87457 11.5416 6.79573 11.7319C6.71689 11.9223 6.58337 12.0849 6.41207 12.1994C6.24077 12.3139 6.03938 12.375 5.83335 12.375C5.55709 12.375 5.29213 12.2652 5.09678 12.0699C4.90143 11.8745 4.79169 11.6096 4.79169 11.3333ZM5.83335 15.7083C6.03938 15.7083 6.24077 15.6472 6.41207 15.5327C6.58337 15.4183 6.71689 15.2556 6.79573 15.0653C6.87457 14.8749 6.8952 14.6655 6.85501 14.4634C6.81481 14.2613 6.7156 14.0757 6.56992 13.9301C6.42424 13.7844 6.23864 13.6852 6.03657 13.645C5.83451 13.6048 5.62506 13.6254 5.43473 13.7043C5.24439 13.7831 5.0817 13.9166 4.96724 14.0879C4.85278 14.2592 4.79169 14.4606 4.79169 14.6666C4.79169 14.9429 4.90143 15.2078 5.09678 15.4032C5.29213 15.5985 5.55709 15.7083 5.83335 15.7083ZM10 12.375C10.206 12.375 10.4074 12.3139 10.5787 12.1994C10.75 12.0849 10.8836 11.9223 10.9624 11.7319C11.0412 11.5416 11.0619 11.3321 11.0217 11.1301C10.9815 10.928 10.8823 10.7424 10.7366 10.5967C10.5909 10.451 10.4053 10.3518 10.2032 10.3116C10.0012 10.2714 9.79173 10.2921 9.60139 10.3709C9.41105 10.4498 9.24837 10.5833 9.13391 10.7546C9.01945 10.9259 8.95835 11.1273 8.95835 11.3333C8.95835 11.6096 9.0681 11.8745 9.26345 12.0699C9.4588 12.2652 9.72375 12.375 10 12.375ZM10 15.7083C10.206 15.7083 10.4074 15.6472 10.5787 15.5327C10.75 15.4183 10.8836 15.2556 10.9624 15.0653C11.0412 14.8749 11.0619 14.6655 11.0217 14.4634C10.9815 14.2613 10.8823 14.0757 10.7366 13.9301C10.5909 13.7844 10.4053 13.6852 10.2032 13.645C10.0012 13.6048 9.79173 13.6254 9.60139 13.7043C9.41105 13.7831 9.24837 13.9166 9.13391 14.0879C9.01945 14.2592 8.95835 14.4606 8.95835 14.6666C8.95835 14.9429 9.0681 15.2078 9.26345 15.4032C9.4588 15.5985 9.72375 15.7083 10 15.7083ZM14.1667 12.375C14.3727 12.375 14.5741 12.3139 14.7454 12.1994C14.9167 12.0849 15.0502 11.9223 15.1291 11.7319C15.2079 11.5416 15.2285 11.3321 15.1883 11.1301C15.1481 10.928 15.0489 10.7424 14.9033 10.5967C14.7576 10.451 14.572 10.3518 14.3699 10.3116C14.1678 10.2714 13.9584 10.2921 13.7681 10.3709C13.5777 10.4498 13.415 10.5833 13.3006 10.7546C13.1861 10.9259 13.125 11.1273 13.125 11.3333C13.125 11.6096 13.2348 11.8745 13.4301 12.0699C13.6255 12.2652 13.8904 12.375 14.1667 12.375ZM18.3334 6.33329V16.3333C18.3334 16.9963 18.07 17.6322 17.6011 18.1011C17.1323 18.5699 16.4964 18.8333 15.8334 18.8333H4.16669C3.50365 18.8333 2.86776 18.5699 2.39892 18.1011C1.93008 17.6322 1.66669 16.9963 1.66669 16.3333V6.33329C1.66669 5.67025 1.93008 5.03437 2.39892 4.56553C2.86776 4.09668 3.50365 3.83329 4.16669 3.83329H5.00002V2.99996C5.00002 2.77895 5.08782 2.56698 5.2441 2.4107C5.40038 2.25442 5.61234 2.16663 5.83335 2.16663C6.05437 2.16663 6.26633 2.25442 6.42261 2.4107C6.57889 2.56698 6.66669 2.77895 6.66669 2.99996V3.83329H13.3334V2.99996C13.3334 2.77895 13.4212 2.56698 13.5774 2.4107C13.7337 2.25442 13.9457 2.16663 14.1667 2.16663C14.3877 2.16663 14.5997 2.25442 14.7559 2.4107C14.9122 2.56698 15 2.77895 15 2.99996V3.83329H15.8334C16.4964 3.83329 17.1323 4.09668 17.6011 4.56553C18.07 5.03437 18.3334 5.67025 18.3334 6.33329ZM3.33335 6.33329V7.16663H16.6667V6.33329C16.6667 6.11228 16.5789 5.90032 16.4226 5.74404C16.2663 5.58776 16.0544 5.49996 15.8334 5.49996H4.16669C3.94567 5.49996 3.73371 5.58776 3.57743 5.74404C3.42115 5.90032 3.33335 6.11228 3.33335 6.33329ZM16.6667 8.83329H3.33335V16.3333C3.33335 16.5543 3.42115 16.7663 3.57743 16.9225C3.73371 17.0788 3.94567 17.1666 4.16669 17.1666H15.8334C16.0544 17.1666 16.2663 17.0788 16.4226 16.9225C16.5789 16.7663 16.6667 16.5543 16.6667 16.3333V8.83329Z" fill="#222221"/>
</svg>
