<svg width="48" height="48" viewBox="0 0 48 48" fill="none" xmlns="http://www.w3.org/2000/svg">
<path d="M6 12C6 11.4696 6.21071 10.9609 6.58579 10.5858C6.96086 10.2107 7.46957 10 8 10H40C40.5304 10 41.0391 10.2107 41.4142 10.5858C41.7893 10.9609 42 11.4696 42 12C42 12.5304 41.7893 13.0391 41.4142 13.4142C41.0391 13.7893 40.5304 14 40 14H8C7.46957 14 6.96086 13.7893 6.58579 13.4142C6.21071 13.0391 6 12.5304 6 12ZM40 22H8C7.46957 22 6.96086 22.2107 6.58579 22.5858C6.21071 22.9609 6 23.4696 6 24C6 24.5304 6.21071 25.0391 6.58579 25.4142C6.96086 25.7893 7.46957 26 8 26H40C40.5304 26 41.0391 25.7893 41.4142 25.4142C41.7893 25.0391 42 24.5304 42 24C42 23.4696 41.7893 22.9609 41.4142 22.5858C41.0391 22.2107 40.5304 22 40 22ZM40 34H8C7.46957 34 6.96086 34.2107 6.58579 34.5858C6.21071 34.9609 6 35.4696 6 36C6 36.5304 6.21071 37.0391 6.58579 37.4142C6.96086 37.7893 7.46957 38 8 38H40C40.5304 38 41.0391 37.7893 41.4142 37.4142C41.7893 37.0391 42 36.5304 42 36C42 35.4696 41.7893 34.9609 41.4142 34.5858C41.0391 34.2107 40.5304 34 40 34Z" fill="#469658"/>
</svg>
