<?xml version="1.0" encoding="utf-8"?>
<!-- Generator: Adobe Illustrator 28.2.0, SVG Export Plug-In . SVG Version: 6.00 Build 0)  -->
<svg version="1.1" id="圖層_1" xmlns="http://www.w3.org/2000/svg" xmlns:xlink="http://www.w3.org/1999/xlink" x="0px" y="0px"
	 viewBox="0 0 32 32" style="enable-background:new 0 0 32 32;" xml:space="preserve">
<g>
	<path d="M15.7,18.4c-0.8,0-1.4-0.1-2-0.3c-0.1,0.3,0,0.6,0.2,1l0.6,0.9c0.7,0.9,1.7,0.9,2.4,0l0.6-0.9c0.3-0.5,0.4-0.9,0.2-1.2
		C17.1,18.1,16.4,18.4,15.7,18.4z"/>
	<path d="M15.1,30.8c-1.3,0-1.8-1.8-1.2-4.9l0.6-2.8c0.7-3.1,1.7-3.1,2.4,0l0.6,2.8c0.7,3.1,0.1,4.9-1.2,4.9H15.1z"/>
	<path d="M9.5,11c-0.4-0.2-1.1-0.2-1.4,0.2c-0.2,0.4,0.1,1.3,0.5,1.8c0.4,0.4,0.6,0.6,0.7,0.8c0.1,0.2,0.5,0.7,0.8,0.2
		C10.3,13.5,9.5,11,9.5,11z"/>
	<path d="M22,10.9c0.4-0.2,1.1-0.2,1.4,0.2c0.2,0.4-0.1,1.3-0.5,1.8c-0.4,0.4-0.6,0.6-0.7,0.8c-0.1,0.2-0.5,0.7-0.8,0.2
		C21.2,13.4,22,10.9,22,10.9z"/>
	<g>
		<path d="M15.6,19c-5.1,0-7.5-6.7-7.5-11.3V7.3h14.9v0.4C23.1,12.2,20.7,19,15.6,19z M9.1,8.1c0.1,4.4,2.4,10.1,6.5,10.1
			s6.4-5.7,6.5-10.1H9.1z"/>
	</g>
	<path d="M28.2,23.3c-0.1-2-1.9-3.1-3.2-3.8c-0.8-0.4-2.4-1.1-3.7-1.8L15.7,30l-5.6-12.2c-1.3,0.7-2.9,1.3-3.7,1.8
		c-1.3,0.7-3.1,1.8-3.2,3.8c-0.1,2-0.4,7.6-0.4,7.6s6,0.1,12.9,0.1c6.9,0,12.9-0.1,12.9-0.1S28.4,25.3,28.2,23.3z M24.5,27.2
		c-0.8,0.1-1.7,0.2-2.3,0.2c-1.1,0-1.8-0.1-1.9-0.1c-0.2,0-0.3-0.2-0.3-0.3c0-0.2,0.2-0.3,0.4-0.3c0,0,2,0.3,4-0.1
		c0.2,0,0.4,0.1,0.4,0.2C24.8,27,24.7,27.1,24.5,27.2z"/>
	<path d="M12.3,7.8c0,0,2.1,3.7,11.9,3.6c0,0,0.3-4.5-1.3-7.2c-1.3-2.1-5.5-3.2-8.5-2.7c0,0,0.4-0.6,1.4-0.8c0,0-2,0.1-2.5,0.8
		c0,0-1.8-0.5-3.6,0.4c0,0,0.8-0.4,3,0.1c0,0-5.2,1-5.5,8.7C7.1,10.6,11.3,10,12.3,7.8z"/>
</g>
</svg>
